<svg width="16" height="16" viewBox="0 0 16 16" fill="none" xmlns="http://www.w3.org/2000/svg">
<path d="M10.1 10.1L15 15L10.1 10.1ZM6.25 11.5C6.93944 11.5 7.62213 11.3642 8.25909 11.1004C8.89605 10.8365 9.4748 10.4498 9.96231 9.96231C10.4498 9.4748 10.8365 8.89605 11.1004 8.25909C11.3642 7.62213 11.5 6.93944 11.5 6.25C11.5 5.56056 11.3642 4.87787 11.1004 4.24091C10.8365 3.60395 10.4498 3.0252 9.96231 2.53769C9.4748 2.05018 8.89605 1.66347 8.25909 1.39963C7.62213 1.1358 6.93944 1 6.25 1C4.85761 1 3.52226 1.55312 2.53769 2.53769C1.55312 3.52226 1 4.85761 1 6.25C1 7.64239 1.55312 8.97774 2.53769 9.96231C3.52226 10.9469 4.85761 11.5 6.25 11.5V11.5Z" stroke="#0F0F0F" stroke-width="2"/>
</svg>
